# xmcd
# 
# Track frame offsets:
#     150
#     18427
#     32610
#     51837
#     75115
#     92468
#     111130
#     131988
#     152764
#     170818
#     189259
#     201808
# 
# Disc length: 2850
# 
# Revision: 0
# Processed by: cddbd v1.5.2PL0 Copyright (c) Steve Scherf et al.
# Submitted via: fre:ac v1.0.17
# 
DISCID=900b200c
DTITLE=Various Artist - Blues en Movimiento Vol. 4
DYEAR=2014
DGENRE=Blues
TTITLE0=Rielar - Blues lejos de casa
TTITLE1=Gintonics - Me ilusioné
TTITLE2=Maldito Blues Club - Cae la lluvia
TTITLE3=Carburoblus - La única manera
TTITLE4=Gintonics - Pavadas
TTITLE5=Maldito Blues Club - Mala leche
TTITLE6=Rielar - Mientras más lejos
TTITLE7=Carburoblus - Bye Bye Blues
TTITLE8=Rielar - Con la luna a mis espaldas
TTITLE9=Gintonics - No me puedo confundir
TTITLE10=Carburoblus - 96%
TTITLE11=Maldito Blues Club - Maldito Boogie
EXTD=
EXTT0=
EXTT1=
EXTT2=
EXTT3=
EXTT4=
EXTT5=
EXTT6=
EXTT7=
EXTT8=
EXTT9=
EXTT10=
EXTT11=
PLAYORDER=
